Coordinates
version=1
nRows=63
nColumns=19
inDegrees=yes

Units are S.I. units (second, meters, Newtons, ...)
Angles are in degrees.

endheader
time	ground_force_vx	ground_force_vy	ground_force_vz	ground_force_px	ground_force_py	ground_force_pz	1_ground_force_vx	1_ground_force_vy	1_ground_force_vz	1_ground_force_px	1_ground_force_py	1_ground_force_pz	ground_torque_x	ground_torque_y	ground_torque_z	1_ground_torque_x	1_ground_torque_y	1_ground_torque_z
1.6675	-10.602	1263.545	-3.746	-0.302	0.000	0.531	51.251	917.353	-60.204	-0.378	0.000	0.147	0.00000	10.57468	0.00000	0.00000	-9.12530	0.00000
1.6700	-8.068	1262.683	-7.668	-0.302	0.000	0.530	51.045	925.248	-60.973	-0.379	0.000	0.146	0.00000	10.77030	0.00000	0.00000	-9.14341	0.00000
1.6725	-6.807	1257.846	-12.057	-0.302	0.000	0.528	50.794	933.308	-61.914	-0.379	0.000	0.146	0.00000	10.93175	0.00000	0.00000	-9.32531	0.00000
1.6750	-6.216	1253.878	-17.106	-0.302	0.000	0.527	50.719	941.539	-62.988	-0.379	0.000	0.146	0.00000	11.12911	0.00000	0.00000	-9.52342	0.00000
1.6775	-4.557	1250.072	-21.238	-0.302	0.000	0.526	51.475	948.230	-64.236	-0.380	0.000	0.145	0.00000	11.22995	0.00000	0.00000	-9.53241	0.00000
1.6800	-2.982	1241.924	-25.538	-0.301	0.000	0.525	51.961	954.581	-64.173	-0.380	0.000	0.145	0.00000	11.27115	0.00000	0.00000	-9.61385	0.00000
1.6825	-2.642	1237.436	-29.662	-0.301	0.000	0.523	52.408	959.208	-65.296	-0.381	0.000	0.145	0.00000	11.35777	0.00000	0.00000	-9.68451	0.00000
1.6850	-1.601	1232.244	-33.964	-0.301	0.000	0.522	53.202	965.215	-65.756	-0.381	0.000	0.145	0.00000	11.45534	0.00000	0.00000	-9.74387	0.00000
1.6875	-0.701	1228.961	-38.670	-0.301	0.000	0.521	53.645	969.674	-66.444	-0.381	0.000	0.145	0.00000	11.67672	0.00000	0.00000	-9.84994	0.00000
1.6900	0.756	1223.760	-41.172	-0.300	0.000	0.520	54.397	973.448	-67.218	-0.381	0.000	0.144	0.00000	11.61309	0.00000	0.00000	-9.78577	0.00000
1.6925	1.597	1216.129	-43.270	-0.300	0.000	0.519	55.410	976.363	-67.949	-0.381	0.000	0.144	0.00000	11.54764	0.00000	0.00000	-9.73327	0.00000
1.6950	2.177	1209.210	-45.054	-0.300	0.000	0.518	56.640	977.731	-68.858	-0.382	0.000	0.144	0.00000	11.62296	0.00000	0.00000	-9.71782	0.00000
1.6975	2.972	1201.061	-47.327	-0.300	0.000	0.517	57.696	980.478	-69.635	-0.381	0.000	0.144	0.00000	11.62470	0.00000	0.00000	-9.64933	0.00000
1.7000	3.325	1192.396	-49.992	-0.300	0.000	0.516	58.880	981.156	-70.415	-0.382	0.000	0.143	0.00000	11.58015	0.00000	0.00000	-9.69807	0.00000
1.7025	3.548	1184.421	-52.926	-0.299	0.000	0.515	59.765	980.978	-71.855	-0.382	0.000	0.143	0.00000	11.42559	0.00000	0.00000	-9.53398	0.00000
1.7050	3.985	1174.530	-56.077	-0.299	0.000	0.515	60.076	979.941	-72.690	-0.382	0.000	0.143	0.00000	11.34082	0.00000	0.00000	-9.46844	0.00000
1.7075	4.913	1164.816	-58.523	-0.299	0.000	0.514	61.218	979.936	-73.736	-0.382	0.000	0.143	0.00000	11.31168	0.00000	0.00000	-9.42861	0.00000
1.7100	5.538	1152.321	-60.790	-0.299	0.000	0.513	62.445	977.359	-74.088	-0.382	0.000	0.142	0.00000	11.20002	0.00000	0.00000	-9.21808	0.00000
1.7125	6.640	1141.907	-63.325	-0.299	0.000	0.512	62.971	974.780	-74.709	-0.382	0.000	0.142	0.00000	11.17568	0.00000	0.00000	-9.13650	0.00000
1.7150	7.484	1129.411	-65.901	-0.299	0.000	0.511	63.587	973.572	-75.454	-0.383	0.000	0.142	0.00000	11.09227	0.00000	0.00000	-9.08790	0.00000
1.7175	8.671	1119.689	-69.101	-0.298	0.000	0.510	63.765	970.474	-76.297	-0.383	0.000	0.142	0.00000	11.04891	0.00000	0.00000	-9.02903	0.00000
1.7200	9.869	1109.102	-70.933	-0.298	0.000	0.510	63.898	967.897	-76.787	-0.383	0.000	0.141	0.00000	11.03502	0.00000	0.00000	-8.90711	0.00000
1.7225	10.576	1100.596	-72.944	-0.298	0.000	0.509	64.120	966.687	-77.753	-0.382	0.000	0.141	0.00000	10.95375	0.00000	0.00000	-8.94956	0.00000
1.7250	11.295	1089.489	-74.201	-0.298	0.000	0.508	64.034	964.281	-78.114	-0.383	0.000	0.141	0.00000	10.89009	0.00000	0.00000	-8.86214	0.00000
1.7275	12.316	1078.381	-75.943	-0.298	0.000	0.508	64.644	959.825	-77.730	-0.383	0.000	0.141	0.00000	10.88870	0.00000	0.00000	-8.56709	0.00000
1.7300	13.164	1068.657	-76.896	-0.297	0.000	0.507	64.903	957.763	-77.693	-0.383	0.000	0.141	0.00000	10.80972	0.00000	0.00000	-8.57558	0.00000
1.7325	13.927	1060.838	-77.678	-0.297	0.000	0.507	65.032	953.640	-78.016	-0.383	0.000	0.140	0.00000	10.59642	0.00000	0.00000	-8.53369	0.00000
1.7350	14.473	1051.808	-77.529	-0.297	0.000	0.506	65.208	949.003	-78.423	-0.383	0.000	0.140	0.00000	10.46329	0.00000	0.00000	-8.33342	0.00000
1.7375	15.147	1044.342	-77.648	-0.297	0.000	0.506	65.253	944.875	-79.096	-0.383	0.000	0.140	0.00000	10.41928	0.00000	0.00000	-8.28276	0.00000
1.7400	15.917	1035.663	-77.147	-0.297	0.000	0.505	65.383	940.584	-79.239	-0.383	0.000	0.140	0.00000	10.30586	0.00000	0.00000	-8.10082	0.00000
1.7425	16.417	1029.237	-77.093	-0.297	0.000	0.505	64.643	937.661	-80.175	-0.382	0.000	0.139	0.00000	10.17109	0.00000	0.00000	-8.07490	0.00000
1.7450	16.781	1021.423	-77.564	-0.297	0.000	0.505	63.987	932.338	-80.415	-0.382	0.000	0.139	0.00000	10.08074	0.00000	0.00000	-7.91875	0.00000
1.7475	17.368	1014.653	-77.683	-0.297	0.000	0.504	63.247	928.384	-81.045	-0.382	0.000	0.139	0.00000	9.97332	0.00000	0.00000	-7.81071	0.00000
1.7500	17.907	1008.570	-77.807	-0.297	0.000	0.504	62.589	922.889	-81.110	-0.383	0.000	0.139	0.00000	9.85158	0.00000	0.00000	-7.69252	0.00000
1.7525	18.407	1000.924	-78.016	-0.297	0.000	0.504	61.715	918.085	-81.307	-0.383	0.000	0.138	0.00000	9.66639	0.00000	0.00000	-7.45849	0.00000
1.7550	18.906	993.975	-77.918	-0.297	0.000	0.504	60.849	913.272	-82.511	-0.383	0.000	0.138	0.00000	9.54667	0.00000	0.00000	-7.22120	0.00000
1.7575	19.617	989.109	-78.219	-0.297	0.000	0.503	59.977	908.288	-83.275	-0.383	0.000	0.138	0.00000	9.49249	0.00000	0.00000	-7.13150	0.00000
1.7600	19.941	982.679	-77.989	-0.296	0.000	0.503	59.420	904.682	-84.734	-0.382	0.000	0.138	0.00000	9.30966	0.00000	0.00000	-6.73252	0.00000
1.7625	20.088	977.123	-77.758	-0.296	0.000	0.503	57.983	901.071	-85.806	-0.382	0.000	0.137	0.00000	9.17218	0.00000	0.00000	-6.65685	0.00000
1.7650	20.847	970.692	-78.147	-0.296	0.000	0.502	57.549	895.751	-86.393	-0.382	0.000	0.137	0.00000	9.05209	0.00000	0.00000	-6.32922	0.00000
1.7675	21.213	965.646	-78.187	-0.296	0.000	0.502	57.949	890.602	-87.457	-0.382	0.000	0.137	0.00000	8.80442	0.00000	0.00000	-5.95575	0.00000
1.7700	21.353	959.391	-78.529	-0.296	0.000	0.502	58.086	885.105	-88.699	-0.382	0.000	0.137	0.00000	8.68805	0.00000	0.00000	-5.68391	0.00000
1.7725	21.535	953.134	-79.313	-0.296	0.000	0.502	58.444	879.782	-89.984	-0.382	0.000	0.136	0.00000	8.52593	0.00000	0.00000	-5.29372	0.00000
1.7750	21.621	947.220	-80.671	-0.296	0.000	0.502	58.931	873.260	-91.009	-0.382	0.000	0.136	0.00000	8.40831	0.00000	0.00000	-4.84173	0.00000
1.7775	22.022	940.784	-81.588	-0.296	0.000	0.501	59.467	867.931	-92.814	-0.382	0.000	0.136	0.00000	8.20387	0.00000	0.00000	-4.48056	0.00000
1.7800	22.113	935.739	-82.906	-0.296	0.000	0.501	60.000	862.599	-94.709	-0.382	0.000	0.136	0.00000	8.00615	0.00000	0.00000	-4.25245	0.00000
1.7825	22.070	930.869	-83.915	-0.296	0.000	0.501	59.140	857.441	-96.830	-0.381	0.000	0.135	0.00000	7.85848	0.00000	0.00000	-3.92852	0.00000
1.7850	21.767	925.130	-84.698	-0.296	0.000	0.501	59.192	852.282	-98.508	-0.381	0.000	0.135	0.00000	7.58853	0.00000	0.00000	-3.72013	0.00000
1.7875	21.684	916.786	-85.876	-0.296	0.000	0.500	59.420	845.920	-100.189	-0.381	0.000	0.135	0.00000	7.36821	0.00000	0.00000	-3.43260	0.00000
1.7900	20.940	911.396	-86.395	-0.297	0.000	0.500	58.915	841.436	-103.618	-0.381	0.000	0.135	0.00000	7.10641	0.00000	0.00000	-3.24431	0.00000
1.7925	20.724	904.445	-87.264	-0.297	0.000	0.500	59.022	836.952	-106.957	-0.381	0.000	0.134	0.00000	6.94675	0.00000	0.00000	-3.02595	0.00000
1.7950	20.774	895.573	-88.179	-0.297	0.000	0.500	58.997	830.062	-110.304	-0.381	0.000	0.134	0.00000	6.67889	0.00000	0.00000	-2.76830	0.00000
1.7975	20.339	887.573	-89.093	-0.297	0.000	0.500	58.275	823.857	-113.871	-0.381	0.000	0.133	0.00000	6.40069	0.00000	0.00000	-2.52031	0.00000
1.8000	19.772	879.587	-90.045	-0.297	0.000	0.499	57.154	818.170	-116.826	-0.381	0.000	0.133	0.00000	6.23250	0.00000	0.00000	-2.44248	0.00000
1.8025	19.480	867.762	-90.425	-0.297	0.000	0.499	56.641	809.913	-119.085	-0.381	0.000	0.133	0.00000	5.85641	0.00000	0.00000	-2.17445	0.00000
1.8050	19.358	857.507	-91.245	-0.297	0.000	0.499	55.905	802.523	-120.688	-0.381	0.000	0.133	0.00000	5.57080	0.00000	0.00000	-1.92209	0.00000
1.8075	18.755	844.992	-91.753	-0.298	0.000	0.499	55.304	794.441	-122.859	-0.380	0.000	0.132	0.00000	5.21355	0.00000	0.00000	-1.62645	0.00000
1.8100	18.552	832.657	-91.951	-0.298	0.000	0.498	54.521	784.644	-124.337	-0.380	0.000	0.132	0.00000	4.97397	0.00000	0.00000	-1.43774	0.00000
1.8125	18.932	818.231	-91.223	-0.298	0.000	0.498	52.999	775.188	-126.168	-0.380	0.000	0.132	0.00000	4.67016	0.00000	0.00000	-1.24264	0.00000
1.8150	18.601	802.935	-90.889	-0.298	0.000	0.498	52.129	764.192	-127.649	-0.380	0.000	0.131	0.00000	4.31124	0.00000	0.00000	-0.93563	0.00000
1.8175	18.371	786.268	-89.842	-0.298	0.000	0.497	50.470	752.514	-128.656	-0.380	0.000	0.131	0.00000	4.05231	0.00000	0.00000	-0.63505	0.00000
1.8200	18.719	766.979	-88.179	-0.299	0.000	0.497	48.981	737.741	-129.495	-0.379	0.000	0.131	0.00000	3.69417	0.00000	0.00000	-0.37281	0.00000
1.8225	19.065	747.177	-86.644	-0.299	0.000	0.496	47.043	722.129	-128.282	-0.379	0.000	0.131	0.00000	3.44302	0.00000	0.00000	-0.06008	0.00000
